<svg xmlns="http://www.w3.org/2000/svg" width="100" height="100">
<path fill="#EFFEFE" d="M0 0h1024v1024H0V0Z"/>
<path fill="#011518" d="M502.214 163.74c2.917.01 5.834 0 8.75-.013 18.564-.017 36.44 1.781 54.598 5.586l2.299.473A1424.59 1424.59 0 0 1 583 173l2.935.636C608.9 178.763 631.948 187.594 653 198l3.106 1.526C676.066 209.41 695.3 220.426 713 234l3.152 2.352c7.33 5.501 14.126 11.41 20.848 17.648a581.406 581.406 0 0 0 4.25 3.75l1.918 1.676c1.2 1.03 2.41 2.05 3.633 3.054 3.872 3.203 7.14 6.631 10.39 10.461 1.812 2.062 3.713 3.963 5.684 5.872 3.912 3.859 7.35 8.003 10.785 12.289 2.332 2.889 4.738 5.703 7.152 8.523 44.51 53.452 76.268 128.572 76.356 198.71l.01 2.908c.005 2.022.007 4.044.007 6.066.002 3.024.02 6.047.04 9.07C857.388 571.382 842.67 626.48 817 675l-1.127 2.142C806.485 694.85 795.29 711.191 783 727l-2.262 2.914c-9.38 11.757-20.012 22.441-30.613 33.086l-2.376 2.39c-64.985 64.806-158.463 97.906-249.174 97.923-56.117-.218-112.429-14.083-161.629-41.24a505.218 505.218 0 0 0-5.141-2.788A522.506 522.506 0 0 1 324 815l-2.695-1.496c-23.851-13.55-45.344-30.349-65.43-48.941l-1.903-1.756c-3.296-3.086-6.218-6.212-8.972-9.807-2.119-2.176-4.26-4.314-6.488-6.379-5.736-5.462-10.406-11.723-15.228-17.978-1.65-2.11-3.376-4.153-5.097-6.205C195.072 693.473 178.053 658.87 166 624l-.768-2.21C158.375 601.74 153.951 580.953 151 560l-.458-3.103C144.016 511.402 147.724 464.967 161 421l.748-2.536c5.845-19.78 13.603-39.174 23.195-57.436a479.784 479.784 0 0 0 3.323-6.532c13.881-27.382 32.167-52.115 53.03-74.547 2.077-2.237 4.071-4.535 6.06-6.851 3.518-4.034 7.28-7.715 11.206-11.348l2.112-1.96c15.752-14.543 32.4-27.366 50.612-38.708a269.641 269.641 0 0 0 5.116-3.328c39.696-26.006 85.302-41.922 131.848-50.004l2.607-.458c17.014-2.766 34.144-3.628 51.357-3.553Z"/>
<path fill="#EEFCFD" d="m616 277 2.342 1.138c18.594 9.094 35.75 20.646 51.658 33.862l1.703 1.396c12.458 10.234 24.308 21.33 34.277 34.038a124.426 124.426 0 0 0 4.07 4.914C725.887 370.615 738.419 393.474 747 416l.791 2.025c25.765 66.086 23.866 137.59-4.398 202.708a705.098 705.098 0 0 1-5.206 11.517c-.55 1.197-1.102 2.394-1.67 3.627-2.457 5.206-4.773 9.711-8.517 14.123-8.069-17.108-16.123-34.221-24.068-51.387a2798.494 2798.494 0 0 0-8.768-18.75l-.998-2.112-2.022-4.281-1.019-2.158-1.017-2.153a2136.413 2136.413 0 0 1-14.858-32.221 1320.89 1320.89 0 0 0-14.848-31.793c-3.564-7.369-7.034-14.776-10.465-22.207-4.95-10.722-10-21.394-15.085-32.053-7.2-15.092-14.274-30.23-21.133-45.481l-1.715-3.81-1.574-3.496a188.6 188.6 0 0 0-3.84-7.817C605 387 605 387 605 384c14.99-.79 42.022-1.075 54 9-.074 3.127-.362 5.284-2.484 7.664C649.212 407 649.212 407 644 407v4c14.48-1.516 34.009-4.61 44.125-16.188 2.95-4.424 3.67-8.584 2.875-13.812-3.036-7.924-9.358-11.756-16.7-15.305-14.99-6.31-31.353-8.72-47.362-10.882l-3.873-.557c-5.822-.79-11.319-1.372-17.19-.963-10.566.545-10.566.545-14.875-2.293-5.606-7.361-8.778-16.226-11.8-24.894-1.602-4.145-2.799-7.12-6.501-9.724-5.51-2.059-10.766-1.8-16.602-1.77l-3.938-.016c-3.554-.014-7.108-.009-10.661.001-3.724.008-7.448 0-11.172-.004a5935.79 5935.79 0 0 0-18.755.016c-7.223.016-14.446.01-21.67-.006-6.208-.013-12.416-.015-18.624-.007-3.705.004-7.41.005-11.115-.005-4.13-.01-8.26.004-12.389.02l-3.714-.018-3.41.026-2.958.003c-4.42.62-7.858 2.977-10.691 6.378-1.133 2.035-1.133 2.035-2.086 4.316l-1.133 2.569-1.156 2.678a397.132 397.132 0 0 1-3.476 7.793c-1.203 2.635-1.203 2.635-2.02 5.458-1.064 2.972-1.946 4.893-4.129 7.186-4.98 1.64-9.935 1.762-15.125 1.938-1.46.086-2.919.178-4.377.275-2.872.191-5.744.366-8.617.53-7.719.512-15.294 1.788-22.881 3.257l-2.284.44c-23.677 4.368-23.677 4.368-43.279 17.248-2.974 4.461-3.19 9.173-2.437 14.312 2.263 6.79 6.946 10.443 13.148 13.605 10.685 4.777 21.176 7.646 32.852 8.395v-4l-3.063-.625c-4.53-1.31-7.932-3.748-10.937-7.375-.938-3.375-.938-3.375-1-6 7.774-5.98 17.121-6.438 26.625-7.625l3.176-.4c8.119-.965 16.03-1.328 24.199-.975-.628 3.946-1.852 7.162-3.555 10.77l-1.596 3.405-.851 1.796c-.887 1.87-1.767 3.744-2.646 5.62-.903 1.927-1.807 3.854-2.712 5.78a1892.078 1892.078 0 0 0-8.327 18.004l-1.349 2.942a2875.29 2875.29 0 0 0-6.624 14.574c-7.19 15.927-7.19 15.927-10.715 22.859-7.73 15.227-14.59 30.896-21.537 46.493l-.838 1.882-.842 1.89c-3.25 7.289-6.575 14.5-10.239 21.589-4.327 8.49-8.111 17.253-11.983 25.958a496.557 496.557 0 0 1-10.416 21.865c-3.194 6.448-6.127 13.014-9.082 19.573l-1.962 4.334c-1.299 2.87-2.596 5.74-3.893 8.61-2.58 5.711-5.175 11.415-7.77 17.119l-2.403 5.285L278 648h-3c-8.273-14.883-15.106-30.028-21-46l-1-2.655c-4.647-12.542-7.39-25.362-9.875-38.47l-.46-2.415c-12.119-64.398 2.603-132.047 38.335-186.835a350.973 350.973 0 0 1 4-5.625l1.294-1.8c14.469-20.04 30.972-39.172 50.706-54.2l1.747-1.356C348.8 300.84 359.174 293.687 370 287l1.754-1.092C403.207 266.513 440.385 254.848 477 251l2.609-.281c46.637-4.67 94.58 5.545 136.391 26.281Z"/>
<path fill="#EEFCFD" d="M530.402 448.07c13.386 9.944 19.585 25.56 26.41 40.305a3374.8 3374.8 0 0 1 14.973 32.447c4.247 9.304 8.624 18.546 12.994 27.792a2070.065 2070.065 0 0 1 14.909 32.323 1318.905 1318.905 0 0 0 15.614 33.326c4.113 8.482 8.099 17.017 12.021 25.59a1288.32 1288.32 0 0 0 8.622 18.436l3.055 6.426a966.883 966.883 0 0 0 1.975 4.116c9.698 20.097 14.364 37.962 6.962 59.606-5.744 14.32-18.065 25.297-31.937 31.563-11.211 4.284-21.618 4.569-33.451 4.502a2641.234 2641.234 0 0 1-21.287.003c-5.44-.015-10.88-.008-16.32-.004-9.133.002-18.265-.011-27.397-.034a8671.099 8671.099 0 0 0-31.584-.017c-10.166.01-20.332.005-30.498-.01-4.31-.005-8.618-.005-12.927 0-5.083.004-10.165-.006-15.248-.028-1.855-.005-3.71-.006-5.565 0-20.867.049-37.642-3.625-53.551-18.072-4.147-4.25-6.82-9.09-9.485-14.34l-1.023-2.013c-3.766-7.756-5.04-14.96-5.101-23.55l-.1-2.4c-.13-14.9 8.138-29.207 14.35-42.35l2.535-5.417c2.133-4.56 4.277-9.114 6.425-13.667 1.884-3.997 3.764-7.995 5.645-11.994 2.026-4.305 4.053-8.61 6.083-12.913a2184.368 2184.368 0 0 0 12.278-26.505c4.002-8.764 8.11-17.478 12.221-26.191 5.057-10.717 10.072-21.45 14.99-32.231 3.99-8.74 8.033-17.456 12.087-26.166 2.763-5.94 5.514-11.884 8.24-17.841l1.62-3.538c1.01-2.203 2.015-4.407 3.018-6.612 7.555-16.481 7.555-16.481 13.545-22.925l2.219-2.425c3.54-3.51 7.258-6.43 11.594-8.887l2.113-1.227c15.702-7.005 35.073-4.503 48.976 4.922Z"/><path fill="#011417" d="m419.635 688.492 2.233-.019c2.452-.016 4.903-.003 7.355.01a2219.17 2219.17 0 0 1 19.637-.02c5.007.01 10.014 0 15.021-.006 8.408-.007 16.815.002 25.222.022 9.716.021 19.432.014 29.149-.008 8.347-.018 16.695-.02 25.042-.01 4.984.006 9.967.007 14.95-.006 4.685-.012 9.369-.004 14.053.02 1.718.005 3.436.003 5.154-.006 2.348-.01 4.694.003 7.041.023l3.978.005c5.257.75 9.057 3.445 12.343 7.565 3.738 5.02 3.86 9.868 3.187 15.938-2.565 5.229-6.755 9.378-12 12-2.343.103-4.689.14-7.034.147l-2.22.011c-2.467.011-4.934.015-7.401.019l-5.292.02c-4.802.017-9.604.028-14.405.036a24592.357 24592.357 0 0 1-37.134.06c-10.833.009-21.666.035-32.499.076-8.369.03-16.737.045-25.106.048-5 .002-10 .011-15 .036-4.705.024-9.41.028-14.115.018-1.726 0-3.452.006-5.178.02-2.359.017-4.716.01-7.074-.003l-3.998.007c-5.24-.732-9.045-3.42-12.356-7.495-3.555-4.874-4.034-10.08-3.188-16 3.515-8.969 10.268-12.497 19.635-12.508Z"/>
<path fill="#04161A" d="m447.058 620.733 3.016-.026 3.275.002 3.475-.02c3.793-.019 7.586-.023 11.38-.025l7.917-.02c5.535-.013 11.07-.016 16.604-.015 6.38.002 12.761-.02 19.142-.051a3715.1 3715.1 0 0 1 18.464-.035c2.61-.003 5.221-.012 7.832-.027 3.657-.02 7.314-.014 10.97-.002l3.25-.034c7.115.06 13.844.988 19.239 6.038 4.238 4.941 4.739 8.252 4.648 14.591-.472 5.055-2.041 8.865-5.837 12.315-6.04 4.161-11.397 4.294-18.581 4.239l-3.625.031c-3.26.023-6.52.023-9.781.01-2.731-.007-5.462.002-8.193.01-6.447.02-12.894.015-19.34-.007-6.632-.023-13.263-.005-19.894.033-5.713.031-11.425.039-17.137.028a1143.16 1143.16 0 0 0-10.21.02c-3.8.02-7.596 0-11.394-.028l-3.378.042c-7.474-.11-12.27-1.807-17.9-6.802-3.603-4.586-3.505-9.513-3.352-15.156.636-5.139 3.114-7.7 6.79-11.094 4.131-2.822 7.624-3.998 12.62-4.017ZM479.37 552.839l3.328-.03 3.599-.012 3.703-.017c2.59-.01 5.178-.016 7.768-.02 3.952-.01 7.904-.04 11.857-.073 2.516-.006 5.031-.011 7.547-.015l3.574-.038c7.063.02 12.69.242 18.215 5.085l1.414 1.781 1.46 1.781c2.988 4.41 2.823 9.616 2.165 14.719-2.36 6.215-6.07 9.304-12 12-3.135.976-6.008 1.142-9.284 1.177l-3.197.039a1098762092.202 1098762092.202 0 0 0-6.998.047c-2.485.014-4.97.024-7.455.032-3.788.017-7.575.061-11.363.105-2.417.01-4.833.019-7.25.026l-3.416.053c-7.467-.02-13.281-.843-18.877-6.26l-1.098-1.719-1.152-1.719c-2.185-4.276-2.662-9.062-1.91-13.781 2.352-5.597 5.636-9.085 11-12 3.057-1.019 5.169-1.139 8.37-1.161Z"/>
<path fill="#041518" d="M505 489c2.996 2.012 5.474 4.434 8 7l1.879 1.848c3.17 3.347 3.17 3.347 4.121 5.152-.407 6.835-5.887 11.887-10.5 16.5-3.454 2.072-5.438 2.707-9.5 2.5-3.093-1.936-5.491-4.37-8-7l-1.875-1.781-1.688-1.719-1.503-1.531c-1.56-3.287-.87-5.525.066-8.969 1.782-2.237 3.357-3.982 5.438-5.875l1.525-1.469c4.061-3.862 6.334-5.5 12.037-4.656Z"/><path fill="#071819" d="M682 434h2c.315.808.63 1.616.953 2.45l1.297 3.238 1.266 3.199c2.215 4.645 4.617 8.12 9.359 10.3l2.086.965A82.875 82.875 0 0 0 707 457v2l-2.45.734c-10.204 3.146-10.204 3.146-16.737 11.141-1.527 3.3-2.767 6.64-3.813 10.125h-2l-.918-2.45c-3.44-9.38-3.44-9.38-11-15.433-2.01-.777-4.032-1.456-6.082-2.117a600.13 600.13 0 0 1-5-2v-2c.808-.315 1.616-.63 2.45-.953l3.237-1.297 3.2-1.266c4.133-1.97 7.224-3.808 9.406-7.921l.894-2.563c1.117-3.116 2.272-6.067 3.813-9Z"/>
<path fill="#061819" d="M320 434h3l.629 2.633c2.296 8.814 2.296 8.814 8.293 15.3 3.21 1.648 6.526 2.549 10.039 3.329L344 456l1 3-2.45.734c-10.204 3.146-10.204 3.146-16.738 11.141-1.526 3.3-2.766 6.64-3.812 10.125l-3-1c-.809-2.11-.809-2.11-1.438-4.75-1.202-4.284-2.16-7.207-5.562-10.25-4.761-2.59-9.827-4.408-15-6v-2l2.16-.664c7.904-2.617 13.722-5.246 17.652-12.836L318 440l1.188-3.438L320 434Z"/><path fill="#0F1D1B" d="M350.75 403.188c3.148 1.136 6.189 2.458 9.25 3.812v4c-7.79.465-14.527-.843-22-3l2-3c2-.043 4-.04 6 0 3-2 3-2 4.75-1.813Z"/>
<path fill="#0E1F21" d="M675 450c.188 2.375.188 2.375 0 5l-3 2v3c-2.41 1.537-3.5 2.098-6.36 1.54-.788-.303-1.577-.604-2.39-.915l-2.422-.898L659 459v-2l2.52-1.023 3.293-1.352 3.269-1.336c2.069-.914 4.762-3.289 6.918-3.289Z"/>
<path fill="#081F1C" d="M335 454c1.482.254 2.96.53 4.438.813l2.496.457L344 456l1 3-15 5v-3l-2-2 2.938-1.375c3.133-1.283 3.133-1.283 4.062-3.625Z"/>
<path fill="#0E1F1E" d="M323 322c-4.408 5.29-9.076 10.188-14 15l-3-2 1-3h2l1-2c4.535-4.767 4.535-4.767 7-6l-1-2c2.667-1.333 4.167-.671 7 0Z"/>
<path fill="#121F20" d="M727 505.875c3 .125 3 .125 4 1.125.25 2.938.25 2.938 0 6-3 2-3 2-5.063 1.75C724 514 724 514 722 512c.725-5.947.725-5.947 5-6.125Z"/>
<path fill="#132022" d="M320 434h3l2 10h-2l-1 2-3-1v2h-3c.475-1.98.955-3.96 1.438-5.938l.808-3.34C319 435 319 435 320 434Z"/><path fill="#111E20" d="M277.438 505.813C280 506 280 506 282 508c.313 2.5.313 2.5 0 5-3 2-3 2-5.063 1.75C275 514 275 514 273 512c.72-5.902.72-5.902 4.438-6.188Z"/>
<path fill="#08191A" d="M311 454v5l-3 1-2 2-9-3v-2a506.083 506.083 0 0 1 5.313-2.063l2.988-1.16C308 453 308 453 311 454Z"/>
<path fill="#0C1C1E" d="M821 656h5l-6 14-4-1c.607-4.86 2.728-8.74 5-13Z"/>
<path fill="#0A1A1C" d="m276 246 1 2c-.777 1.727-.777 1.727-1.938 3.625L273 255h-2v8c-2.438-.688-2.438-.688-5-2-1-2.25-1-2.25-1-5 1.782-2.066 3.355-3.613 5.438-5.313l1.603-1.376A276.294 276.294 0 0 1 276 246Z"/>
<path fill="#0F1F21" d="M412 560h2c-.65 4.714-2.516 8.577-4.563 12.813l-.998 2.1c-.808 1.697-1.623 3.393-2.439 5.087l-2-1c-.196-4.212.023-7.244 2-11a181.008 181.008 0 0 1 4-4c1.235-2.133 1.235-2.133 2-4Z"/>
<path fill="#F3FCFD" d="m730 636 1 3h2c-.453 4.874-1.709 7.39-5 11-1.625-2.75-1.625-2.75-3-6 .75-2.188.75-2.188 2-4l1-3 2-1Z"/>
<path fill="#1A292B" d="m409 690 2 1-2 4h-2l-1 4h-2v5l-2 1c-.656 2.527-.656 2.527-1 5h-1c-.646-6.202.022-10.188 3.621-15.336 1.594-1.924 3.226-3.388 5.379-4.664Z"/>
<path fill="#06171A" d="M717 359c5.75.875 5.75.875 8 2v10l-2 1a675.252 675.252 0 0 1-3.563-5.375l-2.003-3.023L716 361l1-2Z"/><path fill="#122324" d="m603 710 1 2c-2.825 4.672-5.678 7.66-10 11l-4-2 4-2v-3h2l1-3c1.938-.563 1.938-.563 4-1l2-2Z"/><path fill="#E7F5F4" d="M725 784h2l1 3c-1.715 1.986-2.883 2.957-5.375 3.875-3.311 1.419-5.205 3.498-7.625 6.125l-3-3 2.59-1.934 3.347-2.504 1.71-1.275c2.782-2.018 2.782-2.018 5.353-4.287Z"/><path fill="#09161B" d="m752 426 7 7c-1.75 6.75-1.75 6.75-4 9-.698-2.1-1.383-4.206-2.063-6.313l-1.16-3.55C751 429 751 429 752 426Z"/><path fill="#08181A" d="M788 310c3.192 2.966 5.46 6.05 7.75 9.75l1.86 2.984L799 325l-2 1a90.488 90.488 0 0 1-4-4v-2l-5-2 1-4-3-1 2-3Z"/><path fill="#E2F0F1" d="m771 283 3 1c.73 1.848.73 1.848 1.188 4.063l.48 2.222L776 292h2l1 3 3 1v5c-4.587-4.444-8.788-9.202-13-14l2-4Z"/><path fill="#EBF7F8" d="M388 616h2c.943 3.665 1.178 6.368 0 10l-3 2v3h-2v-2h-2c1.418-4.472 3.113-8.711 5-13Z"/><path fill="#0B1819" d="M740 626h4v2l-2 1 1 4h-2l-1 6-4 1c-1.305-3.916-.322-5.039 1.438-8.688l1.433-3.011L740 626Z"/><path fill="#E0EFEF" d="m351 299 2 3c-.875 2.688-.875 2.688-2 5l-2-2-1 2-5 1-1 2-4-1 13-10Z"/><path fill="#031012" d="m681 464 3 1c.854 2.99 1.2 4.511 0 7.438-1.256 3.219-.77 5.248 0 8.562h-2c-.365-1.894-.717-3.79-1.063-5.688l-.597-3.199c-.33-3.025-.115-5.193.66-8.113Z"/><path fill="#EAF5F6" d="M679 544h8l-1 9-3 1-4-10Z"/><path fill="#0F1F20" d="M305 337c.715 1.734.715 1.734 1 4-1.434 2.14-1.434 2.14-3.438 4.25l-1.996 2.14L299 349l-3-3c.563-2.375.563-2.375 2-5 3.625-1.313 3.625-1.313 7-2v-2Z"/><path fill="#E3F0F2" d="m488 496 2 2-2 2.188c-2.184 3.07-2.48 4.162-2 7.812l1 3-3 1-2-3a70.134 70.134 0 0 1 1-4l-1-3 1-2h3l2-4Z"/><path fill="#142522" d="m349 403 3 1-4 1 2 5c-8.571-.857-8.571-.857-12-3l2-2h6l3-2Z"/><path fill="#E5F1F3" d="M635 744c-.561 3.537-1.696 4.993-4.438 7.25l-1.87 1.578C627 754 627 754 625 754v-5l1 2h2l.25-2.375c.75-2.625.75-2.625 2.688-3.938C633 744 633 744 635 744Z"/><path fill="#0B1D1D" d="m267 384 4 1c.75 1.563.75 1.563 1 4-1.13 2.503-2.521 4.67-4 7h-2l-1-7 3-2-1-3Z"/><path fill="#DEECED" d="M796 708h2c.188 2.375.188 2.375 0 5l-3 2v4l-7 1 8-12Z"/><path fill="#111F23" d="m286 636 1 8-8 1c1.875-5.75 1.875-5.75 3-8 3-1 3-1 4-1Z"/><path fill="#102322" d="M515 499c2.063 1.688 2.063 1.688 4 4-.162 3.392-.583 4.583-3 7v-2l-4-2 3-7Z"/><path fill="#0F1E20" d="M852 464h2c.983 4.056 1.236 7.83 1 12l-2 2v-5l-3-1c.875-6.875.875-6.875 2-8Z"/><path fill="#E9F3F6" d="M601 271c9.595 2.89 9.595 2.89 13 6l-1 2h-3v-2c-4.531-.934-4.531-.934-9 0v-2h2v-2h-2v-2Z"/><path fill="#E6F3F4" d="M403 718c2.884 1.293 4.872 2.66 7 5l-3 1v2c-2.438-.813-2.438-.813-5-2l-1-3 2-3Z"/><path fill="#0A1D1F" d="M570 631c2.625-.188 2.625-.188 5 0l1 4h-2l-1 8-1-2h-2l1-6-3-1 2-3Z"/><path fill="#DBE7E9" d="M222 727c4.218 3.97 7.612 8.308 11 13l-5 2-.75-3.313c-1.349-3.98-2.071-4.356-5.25-6.687-.25-2.688-.25-2.688 0-5Z"/><path fill="#C9D8DA" d="M149 540h1l1 19c-3.094-1.547-3.716-3.88-5-7 .313-2.375.313-2.375 1-4l1 1 1-9Z"/><path fill="#E5F2F4" d="m680.922 321.215 1.828 1.723 1.86 1.714L686 326l-2 2c-2-.188-2-.188-4-1l-2-3h-4l1-3c2.574-1.226 3.484-1.326 5.922.215Z"/><path fill="#E4F1F3" d="m819 670 3 1-1 6h-4l2 1v2h-5l5-10Z"/><path fill="#E3F1F3" d="M827 653h2l1 4h-2l.688 1.813L829 661c-1.438 1.75-1.438 1.75-3 3l-3-1c1.11-3.487 2.263-6.775 4-10Z"/><path fill="#0A1C1E" d="m371 642 1 2 4-1-4 10c-3.56-4.746-3.56-4.746-3-9l2-2Z"/><path fill="#D4E3E4" d="m836 630 2 1v4h-2l-.313 2.625c-.721 3.542-1.958 6.218-3.687 9.375h-2a365.55 365.55 0 0 1 6-17Z"/><path fill="#DBEFED" d="M388 385v3l-13 1 1-4c8.571-1.286 8.571-1.286 12 0Z"/><path fill="#E5F3F5" d="M285 233h5l1 3-10 7-1-2 3.906-4.492c1.29-1.467 1.29-1.467 1.094-3.508Z"/><path fill="#132225" d="M734 639c.553 2.076 1 3.844 1 6h-2l-1 6-5 1-1-2 2-2c2.42-2.875 4.47-5.558 6-9Z"/><path fill="#E5F5F5" d="m635.094 385.918 2.406.27 2.406.23C642 387 642 387 644 390h-4l-1 2c-3.688-.498-5.605-1.1-8-4 2-2 2-2 4.094-2.082Z"/><path fill="#E5F2F3" d="M325 816c3.912 1.156 6.875 2.355 10 5l-2 2c-3.625-.375-3.625-.375-7-1v-3l-2-2 1-1Z"/><path fill="#162224" d="M330 533c2 3 2 3 1.688 6.063C331 542 331 542 330 544h-3v2h-2c1.418-4.472 3.113-8.711 5-13Z"/><path fill="#102422" d="m699 455 8 2v2l-10 3 2-7Z"/><path fill="#E1EEF0" d="M755 442c2.787 2.787 2.657 5.154 3 9l-1 2h-5l1-3-1-2 2-2c.643-2.069.643-2.069 1-4Z"/><path fill="#121F21" d="m194 344 4 2-1 5-7 1 4-8Z"/><path fill="#031512" d="m691 454 8 1-1 5h-4l-2 1-1-7Z"/><path fill="#E9F2F3" d="m634 441 3 2-1 5 3 2-1 3h-2c-.725-1.43-1.43-2.869-2.125-4.313l-1.195-2.425L632 444l2-3Z"/><path fill="#172528" d="m219 306 4 4c-2 2-2 2-4 2.375-2.203.446-2.203.446-3.25 2.688L215 317l-2-2 6-9Z"/><path fill="#E6F4F5" d="M376 840c1.606.452 3.21.912 4.813 1.375l2.707.773C386 843 386 843 389 845l-6 2-1-2a101.168 101.168 0 0 0-6-2v-3Z"/><path fill="#0B1B1D" d="M361 739c4.805 2.464 4.805 2.464 5.75 5.063L367 746l1 2h-5l-1-5h-2l1-4Z"/><path fill="#142225" d="M843 420c1.952 3.904 2.506 6.722 3 11l-3 2v-2h-2l2-11Z"/><path fill="#0C1D1D" d="m367 657 2 2-5 11-2-1c.559-3.352 1.358-6.025 3-9l1-2 1-1Z"/><path fill="#E6F4F5" d="M413 563h2c.178 4.548-.002 7.88-2 12l-2-1v-2l-1-3c1.438-3.188 1.438-3.188 3-6Z"/><path fill="#0D181E" d="M581 529c.195 6.055.195 6.055 0 8l-2 2-4-10c3-1 3-1 6 0Z"/><path fill="#101F24" d="m348 495 3 1c.688 2.063.688 2.063 1 4l-3 1-1 3-3-1c1.875-5.75 1.875-5.75 3-8Z"/><path fill="#102123" d="m630 438 2 6-3 3c-2.624-3.061-3-3.732-3-8 2-1 2-1 4-1Z"/><path fill="#0B1A1F" d="M179 648h4c.37 7.508.37 7.508-1.5 10l-1.5 1c-1.63-4.122-2.263-6.707-1-11Z"/><path fill="#0F2023" d="M267 633c6 7.714 6 7.714 6 11-3.224-.933-4.66-1.413-6.375-4.375-.645-2.708-.58-4.049.375-6.625Z"/><path fill="#17272D" d="M748 606c1.671 2.962 2.327 5.37 2.625 8.75l.227 2.422L751 619l-2 1v-5l-3-1 2-8Z"/><path fill="#152326" d="M242 565h3l1 8-5 1 1-9Z"/><path fill="#E7F4F5" d="m692 564 3 1c1.033 3.1 1.178 4.056 0 7l-3 1c-1.125-2.813-1.125-2.813-2-6l2-3Z"/><path fill="#E1EFEF" d="m510 521-1 3c-2 .75-2 .75-4 1l-1-1c-2.333-.04-4.667-.042-7 0v-3l3.375.063c9.299-.16 9.299-.16 9.625-.063Z"/><path fill="#EAF7F7" d="m813 336 2 1c-1.75 5.75-1.75 5.75-4 8-2-3-2-3-2-7 1.875-1.063 1.875-1.063 4-2Z"/><path fill="#0E1E20" d="m614 274 4 1v2l5-2 1 3c-1.563 1.25-1.563 1.25-4 2-2.57-1.068-4.653-2.465-7-4l1-2Z"/><path fill="#0B1B1D" d="m351 200-2 7-5 1v-6c2.647-1.46 3.894-2 7-2Z"/><path fill="#E0EFEF" d="M813 681h2c0 3 0 3-1.5 4.688L812 687h2v2l-7 4c1.566-4.308 3.683-8.062 6-12Z"/><path fill="#E6F2F3" d="m429 647 1.875 2.438c1.867 2.6 1.867 2.6 4.125 3.562l-1 3c-4.677-1.477-4.677-1.477-6.313-4.125L427 650l2-3Z"/><path fill="#0F2022" d="M666 517c2.154 2.622 3.4 4.644 4 8h-2l-1 3c-2.037-4.074-2.026-6.59-1-11Z"/><path fill="#DDEBEC" d="m796 321 8 4v5l-2 1-6-10Z"/><path fill="#172529" d="m250 270 4 2-5 5-4-2 5-5Z"/><path fill="#112022" d="M390 185c-2.118 2.33-4.033 3.888-7 5-3-1-3-1-5-3a210.497 210.497 0 0 1 3.75-1.563l2.11-.878c2.44-.637 3.78-.361 6.14.441Z"/><path fill="#1E3031" d="M466 857h4v2l1.875.375C474 860 474 860 476 862l-16-1v-1l7-1-1-2Z"/><path fill="#0C1D1E" d="M581 852v2c-4.791 1.63-8.056 2.206-13 1 8.792-4.559 8.792-4.559 13-3Z"/><path fill="#E8F4F5" d="M306 585c-1.213 3.724-2.509 7.378-4 11-1.765-3.088-2-4.233-2-8 3.214-3 3.214-3 6-3Z"/><path fill="#E1F0F0" d="M440 504h4v3h-2l-.813 2.438L440 512l-3 1 3-9Z"/><path fill="#E8F1F3" d="M545 470h3l2 6-3 1v2h-2l1-7-2-1 1-1Z"/><path fill="#233436" d="M663.063 456.313C665 457 665 457 666 459c2.017 1.134 2.017 1.134 4 2-2 1-2 1-4.164.441l-2.461-.878-2.477-.872L659 459v-2c2-1 2-1 4.063-.688Z"/><path fill="#112525" d="M654.188 825.25C656 826 656 826 657 828c-5.75 3-5.75 3-8 3l-1-4c2.275-1.381 3.502-2.057 6.188-1.75Z"/><path fill="#E6F0F0" d="M380 753h5l1 3h2v3c-5.662-1.477-5.662-1.477-7.375-4.125L380 753Z"/><path fill="#E0EAED" d="M730 641h3c-1.25 3.46-2.675 6.147-5 9l-3-7 4 1 1-3Z"/><path fill="#DFECED" d="M843 608c1.563 1.813 1.563 1.813 3 4-1 3-1 3-2 4a396.178 396.178 0 0 0-3 5c-1.184-3.552-.695-4.698.438-8.188l.87-2.73L843 608Z"/><path fill="#EBF3F5" d="M655 479v8h-3c-1.46-2.647-2-3.894-2-7 2-1 2-1 5-1Z"/><path fill="#162B28" d="M335 454c1.482.254 2.96.53 4.438.813l2.496.457L344 456l1 3-6 1v-3l-4-1v-2Z"/><path fill="#142124" d="m180 371 3 2v4h-2v2h-4c1.875-5.75 1.875-5.75 3-8Z"/><path fill="#172629" d="M327 367c-1.443 3.366-3.333 5.51-6 8l-4-2a617.075 617.075 0 0 1 3.875-3l2.18-1.688C325 367 325 367 327 367Z"/><path fill="#172328" d="m276 246 1 2c-.777 1.727-.777 1.727-1.938 3.625L273 255l-5-1 8-8Z"/><path fill="#E5EFF0" d="m284 625 1 2 2 1-4 9-2-1 1-5h2v-6Z"/><path fill="#111D22" d="m612 600 2 1c.484 1.996.484 1.996.75 4.438l.297 2.433C615 610 615 610 613 612l-3-8 2-2v-2Z"/><path fill="#212E31" d="M756 581c1.125 3.75 1.125 3.75 0 6h3l-1 6-4-1c.875-7.625.875-7.625 2-11Z"/><path fill="#DEEBED" d="m460 574 4 8-6 1c-1-3-1-3 .438-6.188L460 574Z"/><path fill="#DEE" d="M486.75 442.313 489 443l-4 4-5-2c2.455-2.273 3.338-3.075 6.75-2.688Z"/><path fill="#E7F5F5" d="m346 409-1 5-7-1c.375-1.938.375-1.938 1-4 2.667-1.333 4.167-.671 7 0Z"/><path fill="#E9F2F4" d="M395 384h4c-.53 3.821-1.497 6.062-4 9v-5l-2-1 2-3Z"/><path fill="#112325" d="M813 349c4 4.75 4 4.75 4 7h-2l-1 2c-1.625-2.25-1.625-2.25-3-5 .813-2.313.813-2.313 2-4Z"/><path fill="#122224" d="M361 671h2c-1.156 3.912-2.355 6.875-5 10-.8-3.287-1.097-4.71 0-8h3v-2Z"/><path fill="#D5E3E6" d="M156 587h1l1 9-4 2c-.625-1.875-.625-1.875-1-4l2-2c.648-2.57.648-2.57 1-5Z"/><path fill="#E6F4F6" d="M278.063 513.938 281 514v3l-3-1v2h-2l-1 2-3-2c2.662-3.993 2.662-3.993 6.063-4.063Z"/><path fill="#0C191F" d="m492 495 2 2-2 7-4-4 4-5Z"/><path fill="#162525" d="M837 402c2.458 3.687 3.012 6.697 4 11-4.875-2.625-4.875-2.625-6-6 .938-2.688.938-2.688 2-5Z"/><path fill="#0C1B1C" d="M344 393c5 7.5 5 7.5 5 11h-3v-2l-2-1v-8Z"/><path fill="#112021" d="M652 386c4.75.75 4.75.75 7 3 .625 2.625.625 2.625 1 5l-8-4 2-1v-2l-2-1Z"/><path fill="#19272A" d="M827 379h2l3 9h-3c-2-5.625-2-5.625-2-9Z"/><path fill="#122325" d="m341 363-2 4c-2.938-.375-2.938-.375-6-1l-1-2c3.426-1.618 5.38-2.34 9-1Z"/><path fill="#E3F0F1" d="M291 358c2.125.375 2.125.375 4 1v2c-2.639 1.783-4.972 2.99-8 4 1.074-2.915 1.778-4.778 4-7Z"/><path fill="#0D1B1C" d="M227 296h3c.688 1.813.688 1.813 1 4-1.313 1.75-1.313 1.75-3 3h-2v-2l-2-1c1.313-2 1.313-2 3-4Zm0 2 1 2Z"/><path fill="#1C2A2D" d="m260 264-1 4-8 2c4.5-6 4.5-6 9-6Z"/><path fill="#112022" d="M599 265c1.875.125 1.875.125 4 1 1.25 3.063 1.25 3.063 2 6l-7-2 1-5Z"/><path fill="#102424" d="m665 817 7 2c-2.174 2.5-3.73 3.436-7 4v-6Z"/><path fill="#202B2D" d="M740 626h4v2l-3 2a100.365 100.365 0 0 0-3 6h-2c1.11-3.487 2.263-6.775 4-10Z"/><path fill="#1B2A2B" d="M260 617c1.991 2.986 2.941 5.597 4 9h-3v-2h-2c-.625-1.813-.625-1.813-1-4l2-3Z"/><path fill="#142422" d="m505 514 7 1-5 5-3-2 1-4Z"/><path fill="#142827" d="M302 456v2h3v2h2l-1 2-9-3v-2c3-1 3-1 5-1Z"/><path fill="#1F3134" d="M604 383h6v1h-5l2 6h-5l-1-3 3-1v-3Z"/><path fill="#0F1F1F" d="m333 308 4 2c-4.75 4.875-4.75 4.875-7 6l-1-3 1.438-1.375c1.652-1.558 1.652-1.558 2.562-3.625Z"/><path fill="#E0ECED" d="M729 245h3l5 5h-2l-1 2-6-5 1-2Z"/><path fill="#162227" d="M645 733c1.125 1.75 1.125 1.75 2 4-.875 2.25-.875 2.25-2 4l-2-1-1 2-1-3c1.938-3.188 1.938-3.188 4-6Z"/><path fill="#273136" d="M161 421c2.22 8.561 2.22 8.561 1 11h-3c.875-7.625.875-7.625 2-11Z"/><path fill="#131F22" d="m644 407 6 1v2l3 1h-9v-4Z"/><path fill="#E4F1F2" d="M331 361v2l3 1-8 3-1-3h2v-2c2-1 2-1 4-1Z"/><path fill="#101C21" d="m717 359 5 2-2 4h2l-1 4-5-9 1-1Z"/><path fill="#EAF5F6" d="m697 217 4 1v3c-2 1.688-2 1.688-4 3l-3-3h2l1-4Z"/><path fill="#DDE9E9" d="m310 217 5 2c-2.688 2.252-4.646 3.882-8 5l-1-2h2l2-5Z"/><path fill="#141F1E" d="m594 176 8 2c-1.313 2-1.313 2-3 4h-3c-2-3-2-3-2-6Z"/><path fill="#DAE8E8" d="M418 171v2h4v-2l4 2-11 2-2-3c3-1 3-1 5-1Z"/><path fill="#0C1D1F" d="M677 812c2.063.438 2.063.438 4 1l-1 3c-2.563 1.188-2.563 1.188-5 2 .875-4.875.875-4.875 2-6Z"/><path fill="#E4EFF1" d="m787 721 4 1c-.813 1.938-.813 1.938-2 4l-3 1-2-2 3-4Z"/><path fill="#0D1F20" d="m799 699 1 2-2 2 2 1-4 4v-4h-2c1-3 1-3 3.063-4.188L799 699Z"/><path fill="#2D3B3F" d="M753 592c2 4 2 4 1.875 6.125C754 600 754 600 750 602l3-10Z"/><path fill="#111B20" d="M588 556c3 1 3 1 5 4 .08 2.332.088 4.668 0 7-5-7.5-5-7.5-5-11Z"/><path fill="#0E1D20" d="m532 554 5 2-1 4-6-3 2-3Z"/><path fill="#E3F0F2" d="m531 449 4 4-3 3c-1.5-1.313-1.5-1.313-3-3v-3l2-1Z"/><path fill="#E7F1F3" d="m371 437 4 2-3 6-3-3 2-5Z"/><path fill="#0B1A1A" d="m652 384 3 2h-3v-2Zm-3 1 5 2v2h-6c0-3 0-3 1-4Z"/><path fill="#0D1E20" d="m779 721 5 1 1 3-5 2-1-6Z"/><path fill="#182825" d="m570 649 2 1c-.625 1.875-.625 1.875-2 4-3.125 1.25-3.125 1.25-6 2l1-3h3l1-3 1-1Z"/><path fill="#1C2A2D" d="M338 516c1.125 1.688 1.125 1.688 2 4-.875 2.75-.875 2.75-2 5l-3-2 3-7Z"/><path fill="#E8F6F9" d="M488 513c3.795 1.491 5.61 3.757 8 7-2.375.188-2.375.188-5 0-2-3-2-3-2-5l-1-2Z"/><path fill="#E7F2F2" d="m459 464 4 2c-.313 1.938-.313 1.938-1 4l-3 1v-2l-2-1 2-4Z"/><path fill="#121E24" d="M535 450c1.938.125 1.938.125 4 1 1.25 2.563 1.25 2.563 2 5h-3c-2.188-2.5-2.188-2.5-4-5l1-1Z"/><path fill="#162127" d="m754 432 3 2c.313 3 .313 3 0 6l-2 2a543.754 543.754 0 0 1-1.063-4.438l-.597-2.496L753 433l1-1Z"/><path fill="#091B1C" d="m259 407 3 1-3 8c-1.395-2.298-2.074-3.48-1.688-6.188C258 408 258 408 259 407Z"/><path fill="#122223" d="m280 367 3 3-4 7h-1c.875-7.75.875-7.75 2-10Z"/><path fill="#152427" d="M788 310c2.667 2.49 4.557 4.634 6 8h-3l-2-3-3-2 2-3Z"/><path fill="#102123" d="M637.375 281.813 639 283l-5 1-1 3-4-3c5.415-3.2 5.415-3.2 8.375-2.188Z"/><path fill="#0C1E1D" d="M739 256a141.4 141.4 0 0 1 5 5v2h-4c-1.75-2-1.75-2-3-4l2-1v-2Z"/><path fill="#0E201F" d="M626 835c1.848.34 1.848.34 4.063.938 1.1.291 1.1.291 2.222.59L634 837c-2.139 2.139-3.133 2.427-6 3l-1-3-2-1 1-1Z"/><path fill="#142124" d="m279 777-1 6c-4.875-2.75-4.875-2.75-6-5 2.49-.687 4.379-1 7-1Z"/><path fill="#0E1E22" d="m627 753 2 2c-.375 2.125-.375 2.125-1 4l-6-2 5-4Z"/><path fill="#E9F5F6" d="m406 689 2 1v2c-1.875 1.063-1.875 1.063-4 2l-2-1-1 2v-3c2.375-1.75 2.375-1.75 5-3Z"/><path fill="#0B1B1C" d="m827 643 4 1-2 6-4-2 2-5Z"/><path fill="#E4EDF0" d="m198 329 3 2c-.375 2.438-.375 2.438-1 5l-2 1c-1.125-1.75-1.125-1.75-2-4 .875-2.25.875-2.25 2-4Z"/><path fill="#E8F3F6" d="m202 321 5 2-3 6c-2-2-2-2-2.125-5.125L202 321Z"/><path fill="#132121" d="M243 280c0 3 0 3-1 5-3.063.625-3.063.625-6 1 3.625-4.875 3.625-4.875 7-6Z"/><path fill="#DFEDEF" d="m388 179 3 1 1 3-7 2c1.875-4.875 1.875-4.875 3-6Z"/><path fill="#131E23" d="M233 738c3.736 1.245 4.188 2.634 6 6-3 0-3 0-4.688-1.313C233 741 233 741 233 738Z"/><path fill="#0E1C1F" d="M222 717h1v8h-3l-1-7 2 2 1-3Z"/><path fill="#162023" d="M199 689c2.262 2.262 3.04 3.97 4 7l-1 3c-4.062-5.415-4.062-5.415-3.75-8.375L199 689Z"/><path fill="#0E1D22" d="m197 680 3 3-2 1-1 2h-3l-1-3 2-1 2-2Z"/><path fill="#E3F0F1" d="M722 636c1.875.313 1.875.313 4 1l2 3-4 2-2-6Z"/><path fill="#E2F0F1" d="M388 616h2l1 5-1.938.313L387 622l-1 3-1-2c.936-2.36 1.933-4.696 3-7Z"/><path fill="#E1F0F0" d="m256 607 3 1v2h3l-2 5c-2.463-2.463-2.998-4.707-4-8Z"/><path fill="#102223" d="m443 490 3 2-2 6-2-1 1-7Z"/><path fill="#E4EEF0" d="m180 366 2 1-2 6-3-2c.375-1.938.375-1.938 1-4l2-1Z"/><path fill="#E7F2F4" d="M664 309c3.914 1.27 5.79 2.512 8 6-3 0-3 0-4.387-1.313L664 309Z"/><path fill="#E6F2F5" d="m221 299 2 3-4 4-1-5 3-2Z"/><path fill="#E4F1F3" d="M637 290c2.867.573 3.861.861 6 3l-5 2-2-2 1-3Z"/><path fill="#DDEDEF" d="m607 273 7 3-1 3h-3v-2h-2l-1-4Z"/><path fill="#E0ECED" d="M753 267c3 0 3 0 6 1v3h-2l-1 2-4-5 1-1Z"/><path fill="#1A292D" d="M579 259v2l4-1-1 3-10-2v-1c4.75-1 4.75-1 7-1Z"/><path fill="#E7F1F3" d="M350 195h5l-1 3c-3.063 1.188-3.063 1.188-6 2l2-5Z"/><path fill="#1A2C2B" d="M393 842.188c2 .812 2 .812 3.25 2.875L397 847l-8-2v-2c2-1 2-1 4-.813Z"/><path fill="#DDEAEC" d="m280 785 6 4-2 2c-2.125-.375-2.125-.375-4-1v-5Z"/><path fill="#0A1D1C" d="m761 744 6 1-5 5-1-6Z"/><path fill="#D3E0E3" d="M164 618c2.565 2.565 2.54 4.477 3 8l-3 2c-1.238-3.576-.75-6.337 0-10Z"/><path fill="#091B1D" d="m837 618 3 1-1 5-4-1v-3h2v-2Z"/><path fill="#E4F2F2" d="m707 600 5 5-2 2h-2l-2-6 1-1Z"/><path fill="#DFF0EE" d="M850 582c1.46 2.647 2 3.894 2 7h-2l-1 3c-1.467-3.815-.433-6.29 1-10Z"/><path fill="#16272B" d="m686 560 3 4-2 4-1-2-2-1 2-5Z"/><path fill="#D6E6E8" d="M506 488c1.675.286 3.344.618 5 1l1 4c-3 0-3 0-5.188-2L505 489l1-1Z"/><path fill="#101F22" d="m454 469 3 1-3 6-3-4c1-2 1-2 3-3Z"/><path fill="#E5F5F6" d="m658 457 2 2c1.317.697 2.65 1.37 4 2l-4 3c-1.563-1.25-1.563-1.25-3-3 .313-2.188.313-2.188 1-4Z"/><path fill="#E7F4F6" d="M174 378h2l-1 6-3 1c-.125-2.375-.125-2.375 0-5l2-2Z"/><path fill="#DCE9EA" d="m413 345 2 2-2 4h-5v-3h4l1-3Z"/><path fill="#142627" d="M587 342c3 3.75 3 3.75 3 6h-4l-1-5 2-1Z"/><path fill="#E7F3F3" d="m305 222 2 2-6 4-2-3 6-3Z"/><path fill="#D7E9E6" d="m696 805 2 1-3 5-5-1 2.438-1.938c1.837-1.468 1.837-1.468 3.562-3.062Z"/><path fill="#D5E4E3" d="m717 790 2 1-3 6-4-3 5-4Z"/><path fill="#162327" d="M270 770v5h-3c-1.688-2-1.688-2-3-4 2.076-.553 3.844-1 6-1Z"/><path fill="#E0EBED" d="m260 768 5 5-5 1c-1.125-3.75-1.125-3.75 0-6Z"/><path fill="#D9E6E8" d="m427 532 2 4-4 5-1-2c.936-2.36 1.933-4.696 3-7Z"/><path fill="#EAF4F5" d="m358 467 2 1-1 5-3 1c-.125-2.375-.125-2.375 0-5l2-2Z"/><path fill="#1D292E" d="M377 432c2 3 2 3 1.625 5.188L378 439h-2v2h-2l3-9Z"/><path fill="#D1E1E1" d="m347 391 2 1-1 3a99.485 99.485 0 0 0 0 5l-2-1c-.75-2.938-.75-2.938-1-6l2-2Z"/><path fill="#091C1D" d="m618 353 3 1h-2v3l3 1h-6l2-5Zm-5 5 3 1Z"/><path fill="#DCE9EB" d="M679 320c1.75 1.438 1.75 1.438 3 3l-7 1v-3c1.813-.688 1.813-.688 4-1Z"/><path fill="#142327" d="M658 300c3 1 3 1 4.188 3.063L663 305c-3 0-3 0-5.188-2L656 301l2-1Z"/><path fill="#D5E3E5" d="M477 251h12l-1 3h-3v-2h-8v-1Z"/><path fill="#D7E4E5" d="m285 237 3 1-7 5-1-2c1.634-1.708 2.87-2.935 5-4Z"/><path fill="#122024" d="M440 171c-1.313 1.5-1.313 1.5-3 3h-3v-2l-2-1c3.053-.981 4.947-.981 8 0Z"/><path fill="#DFEEEE" d="M434 856h2v3l2 1-1 2-4-1 1-5Z"/><path fill="#132124" d="M286 789h5l1 5a250 250 0 0 1-6-4v-1Z"/><path fill="#1B292E" d="M616 759v3l-5 1-1-2 6-2Z"/><path fill="#E2EFF0" d="m624 755-4 3-3-3c2.667-1.333 4.167-.671 7 0Z"/><path fill="#111F23" d="m229 729 2 1v5h-3l-1-4h2v-2Z"/><path fill="#0B1C1E" d="m834 626 4 1-2 6h-2v-7Z"/><path fill="#E1ECEE" d="m537 554 4 1 1 4h-3l-2-2v-3Z"/><path fill="#172727" d="m323 468 4 1-3 6-2-1 1-6Z"/><path fill="#DFF0F2" d="M670.563 449.938 674 450c-2.052 2.248-3.007 3.002-6 4l-2-3c1-1 1-1 4.563-1.063Z"/><path fill="#E8F2F4" d="m673 444 5 1-3 5c-2-3-2-3-2-6Z"/><path fill="#283437" d="M682 434h2l1 4-5 2 2-6Z"/><path fill="#0D1F20" d="m249 427 2 1v2h2l-1 5h-2c-1-5.75-1-5.75-1-8Z"/><path fill="#112123" d="m683 370 4 4-5 2-1-2c.938-2.125.938-2.125 2-4Z"/><path fill="#0E1D21" d="m191 360-2 4-4-2v-2c3.75-1.125 3.75-1.125 6 0Z"/><path fill="#081E1D" d="m585 347 6 1v3l-4 1-2-5Z"/><path fill="#0E211D" d="m349 298 1 3-5 3v-5l4-1Z"/><path fill="#0E2221" d="m358 289 3 1v4l-3 1-2-5 2-1Z"/><path fill="#DDECEC" d="m381 282 1 4-3 1v-2l-4-1c3.75-2 3.75-2 6-2Z"/><path fill="#DDEBED" d="M620 281c5.75.75 5.75.75 8 3l-3 1c-2.688-1.375-2.688-1.375-5-3v-1Z"/><path fill="#D7E3E5" d="M261 257h2c-1.393 3.367-2.979 4.986-6 7v-3l4-2v-2Z"/><path fill="#E4EFF1" d="m276 242 4 1-4 4-1-2-2-1h3v-2Z"/><path fill="#E2F0F0" d="m377 185 2 2c-5.75 3-5.75 3-8 3v-2l6-3Z"/>
</svg>